<?xml version="1.0" encoding="UTF-8" standalone="no"?>
<svg
   version="1.1"
   width="425.197"
   height="425.197"
   viewBox="0 0 425.197 425.197"
   id="svg26"
   sodipodi:docname="CMYK_autobal_logo bez tła.svg"
   inkscape:version="1.3.2 (091e20e, 2023-11-25, custom)"
   inkscape:export-filename="CMYK_autobal_logo bez tła.jpg"
   inkscape:export-xdpi="96"
   inkscape:export-ydpi="96"
   xmlns:inkscape="http://www.inkscape.org/namespaces/inkscape"
   xmlns:sodipodi="http://sodipodi.sourceforge.net/DTD/sodipodi-0.dtd"
   xmlns="http://www.w3.org/2000/svg"
   xmlns:svg="http://www.w3.org/2000/svg">
  <sodipodi:namedview
     id="namedview26"
     pagecolor="#ffffff"
     bordercolor="#000000"
     borderopacity="0.25"
     inkscape:showpageshadow="2"
     inkscape:pageopacity="0.0"
     inkscape:pagecheckerboard="0"
     inkscape:deskcolor="#d1d1d1"
     showgrid="false"
     inkscape:zoom="2.3165733"
     inkscape:cx="213.03017"
     inkscape:cy="212.5985"
     inkscape:window-width="1920"
     inkscape:window-height="974"
     inkscape:window-x="-11"
     inkscape:window-y="-11"
     inkscape:window-maximized="1"
     inkscape:current-layer="g26" />
  <defs
     id="defs1">
    <clipPath
       id="clip_0">
      <path
         transform="matrix(1,0,0,-1,0,425.197)"
         d="M0 425.197H425.197V0H0Z"
         id="path1" />
    </clipPath>
  </defs>
  <g
     id="g26">
    <g
       id="layer_1"
       data-name="Layer 1">
      <g
         clip-path="url(#clip_0)"
         id="g25">
        <path
           transform="matrix(1,0,0,-1,386.228,181.40569)"
           d="M0 0C-1.807-1.279-5.216-4.272-6.814-9.48-7.121-10.481-8.117-11.111-9.147-10.919-15.712-9.697-38.422-7.232-58.331-26.253-58.827-26.727-59.518-26.938-60.189-26.793-66.761-25.373-102.702-18.757-129.49-37.297-130.237-37.814-131.22-37.812-131.938-37.253-135.069-34.815-145.66-28.764-173.63-28.764-201.599-28.764-212.19-34.815-215.321-37.253-216.039-37.812-217.022-37.814-217.769-37.297-244.557-18.757-280.498-25.373-287.07-26.793-287.741-26.938-288.432-26.727-288.928-26.253-308.837-7.232-331.547-9.697-338.112-10.919-339.142-11.111-340.138-10.481-340.445-9.48-342.043-4.272-345.452-1.279-347.259 0-347.963 .498-348.273 1.393-348.049 2.226-315.735 122.495-194.486 130.964-179.437 131.553-178.566 131.588-177.825 132.163-177.544 132.988-177.09 134.32-176.286 136.088-175.522 137.653-175.512 137.673-175.503 137.694-175.493 137.714-174.746 139.276-172.513 139.276-171.766 137.714-171.756 137.694-171.747 137.673-171.737 137.653-170.974 136.088-170.17 134.32-169.715 132.988-169.434 132.163-168.693 131.588-167.822 131.553-152.773 130.964-31.524 122.495 .79 2.226 1.014 1.393 .704 .498 0 0"
           fill="#ffffff"
           id="path3" />
        <path
           transform="matrix(1,0,0,-1,66.9763,298.4476)"
           d="M0 0C2.653 8.781 5.298 17.536 7.943 26.29 8.008 26.288 8.073 26.287 8.137 26.286 10.747 17.541 13.357 8.796 15.981 0ZM25.946 10.542C22.693 20.299 19.427 30.052 16.177 39.81 16.073 40.121 15.947 40.222 15.613 40.221 10.557 40.204 5.5 40.202 .444 40.208 .112 40.209-.056 40.138-.164 39.787-.81 37.691-1.465 35.597-2.159 33.517-5.527 23.415-8.917 13.321-12.285 3.219-15.419-6.186-18.535-15.596-21.658-25.004-21.909-25.76-22.148-26.519-22.393-27.277H-8.234C-6.502-21.626-4.786-16.027-3.071-10.428-2.88-10.419-2.737-10.406-2.594-10.406 4.42-10.405 11.435-10.41 18.449-10.391 18.916-10.39 19.076-10.551 19.201-10.964 20.795-16.235 22.411-21.499 24.004-26.77 24.126-27.176 24.298-27.311 24.728-27.309 29.046-27.292 33.364-27.299 37.682-27.299H38.505C38.24-26.465 37.999-25.674 37.738-24.889 33.809-13.078 29.883-1.267 25.946 10.542"
           fill="#1d1d1b"
           id="path4" />
        <path
           transform="matrix(1,0,0,-1,292.4633,308.735)"
           d="M0 0C-.542-1.798-1.373-3.452-2.61-4.879-4.759-7.356-7.542-8.26-10.727-7.969-14.387-7.634-16.794-5.53-18.306-2.3-19.353-.062-19.796 2.326-19.928 4.777-19.965 5.464-19.933 6.155-19.933 6.844-20.031 9.63-19.693 12.353-18.487 14.899-17.048 17.936-14.784 20.027-11.368 20.516-6.756 21.177-3.19 19.582-.855 15.041 .083 13.216 .511 11.247 .726 9.234 1.059 6.117 .911 3.023 0 0M12.425 18.897C10.489 23.268 7.472 26.627 3.108 28.669-1.406 30.781-6.126 31.091-10.948 30.013-14.899 29.13-18.084 27.061-20.364 23.674-20.384 23.644-20.435 23.635-20.546 23.58V52.506H-33.691V-16.956H-20.978V-10.187C-20.945-10.181-20.913-10.175-20.88-10.169-20.62-10.526-20.359-10.882-20.1-11.24-18.098-14.005-15.47-15.909-12.227-16.975-9.214-17.965-6.132-18.18-3.005-17.754 1.184-17.182 4.862-15.497 7.917-12.551 11.401-9.19 13.304-4.989 14.244-.318 14.861 2.749 14.927 5.86 14.724 8.975 14.499 12.406 13.826 15.736 12.425 18.897"
           fill="#1d1d1b"
           id="path5" />
        <path
           transform="matrix(1,0,0,-1,234.1068,310.53129)"
           d="M0 0C-1.13-2.436-2.758-4.438-5.31-5.44-10.309-7.403-16.095-5.998-18.577 .456-19.296 2.328-19.67 4.272-19.782 6.267-19.97 9.602-19.873 12.908-18.569 16.056-17.542 18.539-15.958 20.569-13.443 21.66-9.628 23.317-3.683 23.101-.535 17.433 .559 15.463 1.15 13.357 1.356 11.133 1.446 10.161 1.474 9.183 1.53 8.207 1.487 5.381 1.208 2.605 0 0M2.939 29.866C-.947 31.705-5.083 32.384-9.349 32.412-11.716 32.42-14.063 32.201-16.37 31.675-24.77 29.762-30.3 24.765-32.633 16.409-33.617 12.887-33.847 9.282-33.618 5.638-33.475 3.357-33.146 1.108-32.436-1.064-30.676-6.448-27.369-10.578-22.339-13.265-19.398-14.836-16.228-15.633-12.928-15.975-8.667-16.418-4.46-16.165-.363-14.868 6.486-12.702 11.354-8.365 13.76-1.529 15.796 4.257 15.913 10.174 14.364 16.084 12.704 22.417 8.888 27.05 2.939 29.866"
           fill="#1d1d1b"
           id="path6" />
        <path
           transform="matrix(1,0,0,-1,143.3784,279.8379)"
           d="M0 0C-.001-3.143 .008-6.286-.004-9.429-.025-14.688-.012-19.948-.108-25.206-.15-27.494-.671-29.72-1.743-31.776-3.461-35.067-6.093-36.929-9.902-36.879-12.693-36.843-14.868-35.689-16.2-33.189-16.61-32.42-16.902-31.57-17.132-30.726-17.771-28.384-17.82-25.976-17.825-23.567-17.843-15.677-17.861-7.788-17.88 .102-17.881 .287-17.899 .472-17.908 .647H-31.103C-31.103 .399-31.103 .192-31.103-.016-31.104-2.566-31.113-5.116-31.103-7.665-31.077-14.544-31.082-21.423-30.99-28.301-30.957-30.833-30.619-33.354-29.853-35.787-28.359-40.53-25.418-43.964-20.696-45.74-17.64-46.89-14.482-47.114-11.267-46.649-7.357-46.083-3.999-44.426-1.274-41.547-.767-41.011-.307-40.431 .268-39.762V-45.844H13.186V.669H0Z"
           fill="#1d1d1b"
           id="path7" />
        <path
           transform="matrix(1,0,0,-1,0,425.197)"
           d="M367.388 99.512H380.613V168.968H367.388Z"
           fill="#1d1d1b"
           id="path8" />
        <path
           transform="matrix(1,0,0,-1,343.6209,304.3535)"
           d="M0 0C0-7.863-3.272-12.817-10.433-13.098-16.242-13.445-20.734-6.071-15.156-2.387-13.1-.758-2.665 1.026 0 .873ZM4.18 23.357C-5.929 28.733-18.779 26.046-27.901 19.812-26.82 17.113-25.75 14.443-24.678 11.767-17.211 17.023-.373 20.485 .061 7.214-7.908 6.98-16.376 6.468-23.39 2.305-32.592-2.505-32.91-17.305-22.643-21.082-14.633-24.165-4.83-21.292 .059-14.182 .093-14.194 .126-14.206 .16-14.218V-21.327H13.103C13.156-12.688 13.121-4.049 13.141 4.591 13.27 11.893 10.968 19.638 4.18 23.357"
           fill="#1d1d1b"
           id="path9" />
        <path
           transform="matrix(1,0,0,-1,195.5454,315.69898)"
           d="M0 0C-1.144-.189-2.261-.402-3.383-.497-5.217-.653-7.03-.492-8.562 .681-10.248 1.972-10.875 3.844-10.899 5.839-10.978 12.287-10.943 18.736-10.949 25.185-10.949 25.276-10.92 27.467-10.896 27.609H.065V36.571H-10.974V48.941C-15.716 48.008-19.542 47.253-24.206 46.344V36.548H-31.749V27.588H-24.196C-24.196 27.319-24.196 24.988-24.197 24.758-24.204 18.328-24.209 11.899-24.221 5.469-24.225 3.337-24.164 1.205-23.58-.86-22.26-5.525-19.464-8.875-14.68-10.179-9.775-11.516-4.863-11.141 0-9.806Z"
           fill="#1d1d1b"
           id="path10" />
        <path
           transform="matrix(1,0,0,-1,109.6829,361.66889)"
           d="M0 0C-.003 1.378-.189 2.784-.826 4.098-1.664 5.829-2.971 6.874-4.962 6.926-5.972 6.952-6.939 6.805-7.798 6.238-9.073 5.396-9.772 4.157-10.137 2.711-10.496 1.29-10.504-.156-10.35-1.602-10.233-2.695-9.971-3.751-9.466-4.741-8.171-7.287-5.781-7.895-3.557-7.085-2.249-6.609-1.414-5.574-.828-4.341-.185-2.988-.013-1.539 0 0M-10.825-8.478V-11.852H-17.203V21.834H-10.647V8.538C-10.152 9.01-9.698 9.477-9.207 9.903-8.035 10.922-6.658 11.511-5.13 11.75-3.213 12.05-1.327 11.913 .492 11.224 2.907 10.308 4.565 8.578 5.639 6.264 6.717 3.943 6.967 1.478 6.864-1.043 6.787-2.942 6.453-4.789 5.635-6.517 4.471-8.982 2.703-10.834 .089-11.764-1.377-12.285-2.899-12.397-4.444-12.255-6.002-12.111-7.436-11.633-8.702-10.702-9.413-10.179-10.029-9.56-10.512-8.816-10.592-8.693-10.68-8.576-10.765-8.456-10.785-8.463-10.805-8.47-10.825-8.478"
           fill="#1d1d1b"
           id="path11" />
        <path
           transform="matrix(1,0,0,-1,173.8319,361.6915)"
           d="M0 0C.052-.673 .072-1.351 .164-2.019 .33-3.227 .689-4.37 1.384-5.395 3.068-7.878 6.448-7.867 8.146-6.355 8.894-5.689 9.43-4.882 9.812-3.965 10.364-2.637 10.476-1.241 10.456 .178 10.438 1.494 10.218 2.767 9.698 3.983 8.539 6.691 5.868 7.491 3.628 6.75 2.129 6.255 1.205 5.124 .62 3.699 .135 2.516 .031 1.267 0 0M-6.582-20.986V11.379H-.259V8.277C-.236 8.268-.213 8.26-.19 8.251-.061 8.414 .067 8.577 .197 8.74 1.649 10.566 3.518 11.634 5.853 11.859 7.792 12.046 9.675 11.848 11.459 11.021 13.584 10.036 15.041 8.39 16.045 6.311 16.813 4.719 17.174 3.02 17.28 1.27 17.401-.735 17.304-2.729 16.735-4.674 16.03-7.082 14.753-9.108 12.716-10.614 11.413-11.578 9.93-12.069 8.328-12.224 7.022-12.35 5.726-12.319 4.446-11.98 2.684-11.512 1.293-10.505 .176-9.089 .122-9.021 .064-8.957-.04-8.837V-20.986Z"
           fill="#1d1d1b"
           id="path12" />
        <path
           transform="matrix(1,0,0,-1,290.622,359.9679)"
           d="M0 0C-.073 .487-.122 .939-.21 1.383-.399 2.335-.715 3.241-1.365 3.985-2.215 4.957-3.318 5.301-4.584 5.275-6.376 5.238-7.813 4.283-8.479 2.62-8.813 1.787-9.01 .922-9.026 0ZM6.519-3.874H-8.941C-8.618-6.371-7.139-8.32-4.616-8.911-3.309-9.217-1.989-9.207-.669-9.051-.009-8.973 .651-8.867 1.297-8.713 1.94-8.56 2.566-8.33 3.239-8.121 3.765-9.506 4.296-10.905 4.842-12.344 4.292-12.571 3.759-12.818 3.207-13.015 .625-13.939-2.04-14.274-4.768-14.047-6.817-13.876-8.783-13.371-10.561-12.302-13.279-10.669-14.936-8.242-15.624-5.182-16.192-2.653-16.228-.088-15.548 2.429-14.486 6.358-11.924 8.809-7.973 9.774-5.547 10.366-3.107 10.36-.682 9.733 2.626 8.877 4.789 6.8 5.853 3.561 6.376 1.967 6.498 .319 6.518-1.342 6.527-2.17 6.519-2.998 6.519-3.874"
           fill="#1d1d1b"
           id="path13" />
        <path
           transform="matrix(1,0,0,-1,222.1774,359.9679)"
           d="M0 0C-.073 .487-.122 .939-.21 1.383-.399 2.335-.715 3.241-1.365 3.985-2.215 4.957-3.318 5.301-4.584 5.275-6.376 5.238-7.813 4.283-8.48 2.62-8.813 1.787-9.01 .922-9.026 0ZM6.519-3.874H-8.941C-8.618-6.371-7.139-8.32-4.616-8.911-3.309-9.217-1.989-9.207-.669-9.051-.009-8.973 .651-8.867 1.297-8.713 1.94-8.56 2.566-8.33 3.239-8.121 3.765-9.506 4.296-10.905 4.842-12.344 4.292-12.571 3.759-12.818 3.207-13.015 .625-13.939-2.04-14.274-4.768-14.047-6.817-13.876-8.783-13.371-10.561-12.302-13.279-10.669-14.936-8.242-15.624-5.182-16.192-2.653-16.228-.088-15.548 2.429-14.486 6.358-11.924 8.809-7.973 9.774-5.547 10.366-3.107 10.36-.682 9.733 2.626 8.877 4.789 6.8 5.853 3.561 6.376 1.967 6.498 .319 6.518-1.342 6.527-2.17 6.519-2.998 6.519-3.874"
           fill="#1d1d1b"
           id="path14" />
        <path
           transform="matrix(1,0,0,-1,135.3084,359.9679)"
           d="M0 0C-.073 .487-.122 .939-.21 1.383-.399 2.335-.715 3.241-1.365 3.985-2.215 4.957-3.318 5.301-4.584 5.275-6.376 5.238-7.813 4.283-8.479 2.62-8.813 1.787-9.01 .922-9.026 0ZM6.519-3.874H-8.941C-8.618-6.371-7.139-8.32-4.616-8.911-3.309-9.217-1.989-9.207-.669-9.051-.009-8.973 .651-8.867 1.297-8.713 1.94-8.56 2.566-8.33 3.239-8.121 3.765-9.506 4.296-10.905 4.842-12.344 4.292-12.571 3.759-12.818 3.207-13.015 .625-13.939-2.04-14.274-4.768-14.047-6.817-13.876-8.783-13.371-10.561-12.302-13.279-10.669-14.936-8.242-15.624-5.182-16.192-2.653-16.228-.088-15.548 2.429-14.486 6.358-11.924 8.809-7.973 9.774-5.547 10.366-3.107 10.36-.682 9.733 2.626 8.877 4.789 6.8 5.853 3.561 6.376 1.967 6.498 .319 6.518-1.342 6.527-2.17 6.519-2.998 6.519-3.874"
           fill="#1d1d1b"
           id="path15" />
        <path
           transform="matrix(1,0,0,-1,300.6322,350.3003)"
           d="M0 0H6.298V-3.108C6.543-2.805 6.75-2.542 6.964-2.284 8.359-.602 10.183 .244 12.327 .461 13.87 .616 15.391 .537 16.858-.009 19.228-.892 20.686-2.614 21.403-5.004 21.845-6.478 21.957-7.997 21.957-9.523 21.959-14.039 21.939-18.555 21.926-23.07 21.926-23.108 21.92-23.145 21.914-23.209H15.352C15.352-23.095 15.351-22.975 15.352-22.854 15.374-18.853 15.4-14.851 15.417-10.85 15.421-9.755 15.391-8.661 15.12-7.589 14.926-6.821 14.609-6.118 14.084-5.519 13.216-4.529 12.087-4.265 10.844-4.431 8.701-4.718 7.581-6.122 6.998-8.072 6.665-9.184 6.55-10.331 6.548-11.485 6.539-15.287 6.547-19.088 6.549-22.89 6.549-22.993 6.549-23.096 6.549-23.217H0Z"
           fill="#1d1d1b"
           id="path16" />
        <path
           transform="matrix(1,0,0,-1,143.5817,373.5265)"
           d="M0 0V.323C0 1.504 .003 2.686-.004 3.867-.005 4.088 .054 4.262 .196 4.436 1.841 6.461 3.479 8.493 5.121 10.52 6.715 12.488 8.312 14.455 9.91 16.42 10.342 16.952 10.785 17.476 11.221 18.005 11.291 18.089 11.355 18.179 11.455 18.31H.882V23.211H20.027C20.034 23.135 20.048 23.053 20.048 22.971 20.052 21.809 20.063 20.646 20.048 19.484 20.045 19.306 19.957 19.096 19.841 18.956 18.82 17.72 17.784 16.495 16.752 15.267 15.743 14.068 14.733 12.87 13.725 11.671 12.857 10.638 11.997 9.598 11.12 8.573 10.136 7.423 9.136 6.288 8.144 5.145 8.084 5.076 8.034 5 7.946 4.882H20.506V0Z"
           fill="#1d1d1b"
           id="path17" />
        <path
           transform="matrix(1,0,0,-1,252.146,373.5265)"
           d="M0 0C0 .117 0 .22 0 .323 0 1.504 .003 2.686-.004 3.867-.005 4.088 .054 4.262 .196 4.436 1.841 6.461 3.479 8.493 5.121 10.52 6.715 12.488 8.312 14.455 9.91 16.42 10.342 16.952 10.785 17.476 11.221 18.005 11.291 18.089 11.355 18.179 11.455 18.31H.882V23.211H20.027C20.034 23.135 20.048 23.053 20.048 22.971 20.052 21.809 20.063 20.646 20.048 19.484 20.045 19.306 19.957 19.096 19.841 18.956 18.82 17.72 17.784 16.495 16.752 15.267 15.743 14.068 14.733 12.87 13.725 11.671 12.857 10.638 11.997 9.598 11.12 8.573 10.136 7.423 9.136 6.288 8.144 5.145 8.084 5.076 8.034 5 7.946 4.882H20.506V0Z"
           fill="#1d1d1b"
           id="path18" />
        <path
           transform="matrix(1,0,0,-1,0,425.197)"
           d="M335.19 51.684H328.609V74.849H335.19Z"
           fill="#1d1d1b"
           id="path19" />
        <path
           transform="matrix(1,0,0,-1,0,425.197)"
           d="M202.464 51.49H195.88301V74.655H202.464Z"
           fill="#1d1d1b"
           id="path20" />
        <path
           transform="matrix(1,0,0,-1,199.1739,347.6084)"
           d="M0 0V0C-1.878 0-3.401 1.523-3.401 3.401-3.401 5.279-1.878 6.802 0 6.802 1.878 6.802 3.401 5.279 3.401 3.401 3.401 1.523 1.878 0 0 0"
           fill="#1d1d1b"
           id="path21" />
        <path
           transform="matrix(1,0,0,-1,331.8999,347.6084)"
           d="M0 0V0C-1.878 0-3.401 1.523-3.401 3.401-3.401 5.279-1.878 6.802 0 6.802 1.878 6.802 3.401 5.279 3.401 3.401 3.401 1.523 1.878 0 0 0"
           fill="#1d1d1b"
           id="path22" />
        <path
           transform="matrix(1,0,0,-1,238.8959,361.8744)"
           d="M0 0C0-2.386 1.129-4.483 2.953-5.657 4.778-6.859 7.299-7.137 10.083-6.563 10.287-6.521 10.49-6.476 10.691-6.427V-11.689C5.936-12.59 1.642-12.067-1.491-10.002-4.718-7.928-6.713-4.219-6.713 0-6.713 4.22-4.718 7.928-1.491 10.003 1.642 12.067 5.936 12.59 10.691 11.689V6.427C10.49 6.476 10.287 6.521 10.083 6.563 7.299 7.137 4.778 6.859 2.953 5.657 1.129 4.484 0 2.386 0 0"
           fill="#1d1d1b"
           id="path23" />
        <path
           transform="matrix(1,0,0,-1,353.8452,362.8613)"
           d="M0 0C0-3.921-1.632-6.391-5.202-6.531-8.099-6.704-10.339-3.027-7.558-1.19-6.533-.378-1.329 .511 0 .435ZM2.084 11.647C-2.957 14.328-9.364 12.988-13.913 9.88-13.374 8.533-12.84 7.202-12.306 5.868-8.582 8.488-.186 10.215 .031 3.597-3.943 3.481-8.166 3.225-11.664 1.15-16.252-1.249-16.411-8.629-11.291-10.513-7.297-12.05-2.409-10.617 .03-7.072 .046-7.078 .063-7.084 .08-7.09V-10.635H6.534C6.56-6.327 6.543-2.019 6.553 2.289 6.617 5.931 5.469 9.793 2.084 11.647"
           fill="#1d1d1b"
           id="path24" />
        <path
           transform="matrix(1,0,0,-1,80.2829,350.6358)"
           d="M0 0C0-1.565 .004-3.13-.002-4.694-.012-7.312-.006-9.931-.054-12.549-.075-13.688-.334-14.796-.868-15.819-1.723-17.458-3.034-18.385-4.93-18.36-6.319-18.342-7.402-17.767-8.065-16.523-8.269-16.14-8.414-15.717-8.529-15.297-8.847-14.131-8.871-12.932-8.874-11.733-8.883-7.805-8.892-3.877-8.902 .051-8.902 .143-8.911 .235-8.915 .322H-15.484C-15.484 .199-15.484 .095-15.484-.008-15.485-1.277-15.489-2.547-15.484-3.816-15.471-7.241-15.474-10.665-15.428-14.09-15.412-15.35-15.243-16.605-14.862-17.816-14.119-20.178-12.654-21.887-10.303-22.772-8.782-23.344-7.21-23.455-5.609-23.224-3.663-22.942-1.991-22.117-.634-20.684-.382-20.417-.153-20.128 .134-19.795V-22.823H6.565V.333H0Z"
           fill="#1d1d1b"
           id="path25" />
      </g>
    </g>
    <path
       style="fill:#ec6725;stroke-width:0.431672;fill-opacity:1"
       d="m 166.40958,217.07095 c -6.10671,-3.98386 -16.41383,-7.93297 -25.03698,-9.59277 -10.7597,-2.07105 -24.49796,-2.26173 -36.26045,-0.50326 -3.20517,0.47916 -6.118952,0.86941 -6.475082,0.86721 -0.356129,-0.002 -1.910148,-1.09283 -3.453376,-2.42363 -10.781934,-9.29779 -23.536126,-14.01096 -37.739456,-13.9462 -3.103973,0.0142 -6.612411,0.1846 -7.796528,0.37879 -1.184117,0.19418 -2.354313,0.27578 -2.600436,0.18134 -0.246124,-0.0944 -1.094064,-1.5595 -1.884313,-3.25568 -0.993641,-2.13274 -2.291391,-3.94699 -4.207438,-5.88198 -1.743899,-1.76115 -2.696471,-3.05455 -2.570524,-3.49028 0.110054,-0.38074 0.812203,-2.82903 1.560331,-5.44064 6.098615,-21.28946 17.041489,-42.223 31.027403,-59.35491 24.811322,-30.392402 62.455819,-51.770182 107.141329,-60.84405 7.16015,-1.453946 17.00028,-2.864645 22.61345,-3.241907 7.64526,-0.513838 7.50006,-0.466813 8.47667,-2.745176 1.96383,-4.581427 2.13614,-4.826436 3.39432,-4.826436 1.25817,0 1.43048,0.245009 3.39431,4.826436 0.97653,2.278157 0.82762,2.229909 8.47667,2.746387 11.59672,0.783032 26.97394,3.690993 40.95558,7.745045 21.11025,6.12103 41.34012,15.725158 57.54894,27.321348 14.60994,10.452318 27.86567,23.624053 37.83522,37.595503 10.54427,14.77687 19.33739,33.12164 24.66747,51.46293 0.83453,2.87166 1.51732,5.27629 1.51732,5.3436 0,0.0673 -1.24271,1.37739 -2.76158,2.91128 -1.9072,1.92605 -3.20611,3.74302 -4.1984,5.87285 -0.79025,1.69618 -1.63819,3.16123 -1.88431,3.25568 -0.24613,0.0944 -1.41632,0.0128 -2.60044,-0.18134 -3.60747,-0.59159 -13.20964,-0.45081 -17.31283,0.25383 -10.89407,1.87082 -19.73429,6.1552 -29.26974,14.18545 l -1.99229,1.67781 -6.57441,-0.9488 c -23.49874,-3.39125 -45.67062,0.13336 -61.02,9.70021 -1.69633,1.05727 -3.42931,1.92231 -3.85107,1.92231 -0.42176,0 -1.6824,-0.58751 -2.80142,-1.30559 -4.16319,-2.67151 -12.07246,-4.98436 -21.66931,-6.33659 -7.57049,-1.06672 -29.3813,-1.06054 -37.02161,0.0105 -9.44691,1.32428 -17.97795,3.87209 -21.90861,6.54304 -2.10671,1.43155 -2.8854,1.36587 -5.71841,-0.4823 z"
       id="path26" />
  </g>
</svg>
